Coordinates
version=1
nRows=4
nColumns=63
inDegrees=yes

Units are S.I. units (second, meters, Newtons, ...)
If the header above contains a line with 'inDegrees', this indicates whether rotational values are in degrees (yes) or radians (no).

endheader
time	pelvis_tilt	pelvis_list	pelvis_rotation	pelvis_tx	pelvis_ty	pelvis_tz	hip_flexion_r	hip_adduction_r	hip_rotation_r	knee_angle_r	knee_angle_r_beta	ankle_angle_r	subtalar_angle_r	mtp_angle_r	hip_flexion_l	hip_adduction_l	hip_rotation_l	knee_angle_l	knee_angle_l_beta	ankle_angle_l	subtalar_angle_l	mtp_angle_l	L5_S1_Flex_Ext	L5_S1_Lat_Bending	L5_S1_axial_rotation	L4_L5_Flex_Ext	L4_L5_Lat_Bending	L4_L5_axial_rotation	L3_L4_Flex_Ext	L3_L4_Lat_Bending	L3_L4_axial_rotation	L2_L3_Flex_Ext	L2_L3_Lat_Bending	L2_L3_axial_rotation	L1_L2_Flex_Ext	L1_L2_Lat_Bending	L1_L2_axial_rotation	L1_T12_Flex_Ext	L1_T12_Lat_Bending	L1_T12_axial_rotation	Abs_r3	Abs_r2	Abs_r1	Abs_t1	Abs_t2	neck_flexion	neck_bending	neck_rotation	arm_flex_r	arm_add_r	arm_rot_r	elbow_flex_r	pro_sup_r	wrist_flex_r	wrist_dev_r	arm_flex_l	arm_add_l	arm_rot_l	elbow_flex_l	pro_sup_l	wrist_flex_l	wrist_dev_l
      2.31666667	     -3.01025740	      0.52499181	     83.98632241	      0.24895653	      1.00503865	      0.41220871	      2.51982221	     -5.81328965	     -6.77529628	     14.10157556	      0.24611892	     34.91295749	      4.82793011	      0.00000000	     -1.77051994	      3.41304097	     10.56654202	      4.09305874	      0.07143735	     35.75384191	     -5.59219533	      0.00000000	      0.08287237	     -0.39024694	     -2.23225854	      0.15390228	     -0.51902843	     -2.37177470	      0.13615102	     -0.94884641	     -2.37177470	      0.09471483	     -0.94884641	     -1.95322622	      0.07695528	     -0.79579156	     -1.81371006	      0.04735327	     -0.60449251	     -1.67419391	      0.59194906	     -4.41455141	    -12.41515233	      0.00000000	      0.00000000	     15.12202232	     -3.22054017	      7.76351821	      2.36601775	    -14.06209024	     16.33300911	    121.64641681	     79.67263297	     -9.29596846	      6.07886164	    -15.31868340	    -20.39014528	     -3.59864886	    133.52274848	     70.76567228	     -2.13597095	      7.44911702
      2.33333333	     -3.08667396	      0.67693901	     83.38970930	      0.24954886	      1.00444720	      0.41135068	      2.63013531	     -5.77496408	     -4.88103399	     14.46635206	      0.25248547	     34.93754721	      3.13228115	      0.00000000	     -2.11977662	      3.55465637	     10.72596506	      3.86829784	      0.06751453	     35.88031447	     -6.43649717	      0.00000000	      0.06247181	     -0.41868899	     -2.13062355	      0.11601639	     -0.55685635	     -2.26378752	      0.10263493	     -1.01800040	     -2.26378752	      0.07139903	     -1.01800040	     -1.86429561	      0.05801132	     -0.85379058	     -1.73113164	      0.03569639	     -0.64854924	     -1.59796766	      0.44622987	     -4.73629355	    -11.84988901	      0.00000000	      0.00000000	     15.22261749	     -2.90542486	      6.87039509	      0.54180829	    -14.54481235	     16.91686795	    122.41169131	     75.96486754	     -6.62406329	      6.45310392	    -16.94011067	    -21.87515747	     -2.56524596	    134.05037329	     66.32161999	     -0.61020168	     10.47905120
      2.35000000	     -3.24600694	      0.54344162	     83.00204155	      0.24991436	      1.00354307	      0.41026896	      2.99790171	     -5.93287751	     -4.44103858	     14.85039435	      0.25918828	     35.29005180	      3.00943217	      0.00000000	     -2.16548794	      3.71847181	     10.61133376	      3.64855755	      0.06367934	     35.93514941	     -6.68490760	      0.00000000	      0.08507560	     -0.44603117	     -2.05207670	      0.15799389	     -0.59322146	     -2.18033149	      0.13977070	     -1.08448019	     -2.18033149	      0.09723290	     -1.08448019	     -1.79556711	      0.07900120	     -0.90954676	     -1.66731232	      0.04861220	     -0.69090228	     -1.53905752	      0.60768648	     -5.04559380	    -11.41303496	      0.00000000	      0.00000000	     15.57495464	     -2.42567755	      6.28928244	     -1.40683428	    -14.86524802	     17.41882241	    123.16994397	     76.05887130	     -5.94417020	      6.46239152	    -18.50852237	    -23.04713331	     -1.73842962	    134.44528069	     66.14532258	     -0.16560575	     11.40408952
      2.36666667	     -3.45486307	      0.54791703	     82.05558100	      0.25068815	      1.00280660	      0.40954517	      3.46892978	     -6.13059927	     -3.30294052	     15.46272274	      0.26987542	     35.67887259	      2.63411435	      0.00000000	     -2.32643317	      4.01072231	     10.08810831	      3.47541061	      0.06065736	     35.79801348	     -7.60295086	      0.00000000	      0.08898678	     -0.48509562	     -1.75704039	      0.16525735	     -0.64517717	     -1.86685542	      0.14619638	     -1.17946148	     -1.86685542	      0.10170299	     -1.17946148	     -1.53741034	      0.08263312	     -0.98920698	     -1.42759532	      0.05084705	     -0.75141311	     -1.31778030	      0.63562367	     -5.48749863	     -9.77213156	      0.00000000	      0.00000000	     15.62325533	     -2.11323340	      4.51657868	     -3.67528628	    -14.72787525	     16.49700630	    123.71434188	     77.72983063	     -4.55616356	      6.14011965	    -18.86008689	    -23.71298570	     -0.94452967	    134.45455273	     65.83077516	      0.36095853	     13.46217532
